<svg width="312" height="127" viewBox="0 0 312 127" fill="none" xmlns="http://www.w3.org/2000/svg">
<g clip-path="url(#clip0_3_47)">
<path d="M126.84 63.44C126.836 75.9824 123.113 88.2421 116.142 98.6688C109.171 109.096 99.2648 117.221 87.676 122.018C76.0871 126.815 63.3361 128.068 51.0351 125.619C38.7342 123.17 27.4357 117.128 18.5683 108.258C9.70081 99.3874 3.66262 88.087 1.21716 75.7853C-1.22829 63.4836 0.0288029 50.7329 4.8295 39.1456C9.6302 27.5583 17.7589 17.6546 28.1879 10.6868C38.6168 3.71902 50.8776 6.23677e-07 63.42 0C71.7501 -4.14218e-07 79.9987 1.64106 87.6944 4.82947C95.3902 8.01787 102.382 12.6912 108.272 18.5824C114.161 24.4736 118.832 31.4673 122.018 39.1641C125.204 46.8609 126.843 55.1099 126.84 63.44Z" fill="#FFDD00"/>
<path d="M114.39 63.44C114.39 73.5268 111.399 83.3872 105.795 91.7741C100.191 100.161 92.2259 106.698 82.9068 110.558C73.5878 114.418 63.3334 115.428 53.4404 113.46C43.5473 111.492 34.46 106.635 27.3275 99.5024C20.195 92.37 15.3378 83.2826 13.3699 73.3896C11.4021 63.4966 12.412 53.2422 16.2721 43.9231C20.1322 34.6041 26.669 26.639 35.0559 21.035C43.4428 15.4311 53.3031 12.44 63.39 12.44C76.916 12.44 89.8881 17.8132 99.4524 27.3776C109.017 36.9419 114.39 49.914 114.39 63.44ZM63.39 26.55C56.1036 26.5619 48.9842 28.733 42.9311 32.7891C36.8781 36.8452 32.163 42.6043 29.3815 49.3389C26.5999 56.0735 25.8768 63.4813 27.3034 70.6267C28.73 77.7721 32.2423 84.3343 37.3966 89.4845C42.551 94.6347 49.1161 98.1417 56.2626 99.5624C63.4091 100.983 70.8164 100.254 77.5487 97.467C84.2811 94.68 90.0363 89.9602 94.0875 83.9039C98.1387 77.8476 100.304 70.7264 100.31 63.44C100.314 58.597 99.3634 53.8006 97.5128 49.3251C95.6622 44.8495 92.9477 40.7826 89.5245 37.3566C86.1014 33.9307 82.0366 31.2129 77.5626 29.3587C73.0886 27.5044 68.293 26.55 63.45 26.55" fill="#FF5100"/>
<path d="M116.31 47.82C114.69 45.61 111.74 44.5 107.56 44.5C106.172 44.5075 104.786 44.601 103.41 44.78C97.94 45.48 93.03 46.44 89.28 50.2L95.95 28.99L85.95 30.6C82.19 31.2 78.4 32.72 76.13 39.76L73.02 49.76L65.63 50.98C62.9692 51.3904 60.4587 52.4787 58.34 54.14C58.6208 53.1109 58.6822 52.0343 58.52 50.98C58.2385 49.1811 57.3278 47.5404 55.95 46.35L56.95 46.18C59.2729 45.7755 61.4502 44.7723 63.267 43.2694C65.0838 41.7665 66.4773 39.8159 67.31 37.61L70.31 28.18L17.81 36.74C16.6144 36.843 15.4815 37.3195 14.5716 38.102C13.6617 38.8844 13.0209 39.9333 12.74 41.1L8.65002 54.17L28.24 50.94L11.03 107.34L21.6 105.74C23.7427 105.284 25.7331 104.288 27.3819 102.845C29.0308 101.403 30.2832 99.563 31.02 97.5L31.63 95.5L45.99 92.94L48.2 85.94C48.5425 86.973 49.1172 87.9138 49.88 88.69C50.7702 89.5136 51.8164 90.1504 52.9569 90.5626C54.0974 90.9749 55.309 91.1542 56.52 91.09C57.5028 91.0867 58.4832 90.9963 59.45 90.82L77.45 87.93L79.45 81.44C79.6794 82.0277 79.9853 82.5825 80.36 83.09C82.05 85.33 84.94 86.41 89.21 86.41C90.8624 86.3972 92.5123 86.2803 94.15 86.06C105.82 84.57 109.26 80.06 111.84 71.8L112.84 68.57H113.04L117.04 56.02C118.04 52.63 117.86 49.87 116.34 47.82" fill="white"/>
<path d="M105.11 87.71V87.65C105.11 87.22 105.03 87.01 104.8 86.92C104.928 86.8659 105.038 86.7756 105.116 86.6603C105.194 86.5449 105.237 86.4093 105.24 86.27C105.241 86.1595 105.218 86.0502 105.173 85.9492C105.129 85.8481 105.063 85.7578 104.981 85.684C104.898 85.6103 104.801 85.5548 104.696 85.5214C104.591 85.488 104.48 85.4772 104.37 85.49H103.19V88.49H103.78V87.23H104.17C104.34 87.23 104.5 87.23 104.52 87.48C104.54 87.73 104.52 87.68 104.52 87.78C104.504 88.0079 104.539 88.2365 104.62 88.45H105.21V88.35C105.16 88.1363 105.126 87.919 105.11 87.7V87.71ZM104.62 86.3C104.626 86.3466 104.621 86.3938 104.607 86.4386C104.593 86.4834 104.57 86.5247 104.539 86.5597C104.507 86.5947 104.469 86.6226 104.426 86.6417C104.383 86.6607 104.337 86.6704 104.29 86.67H103.77V85.94H104.31C104.356 85.9382 104.403 85.9465 104.446 85.9644C104.488 85.9823 104.527 86.0093 104.558 86.0435C104.59 86.0778 104.613 86.1185 104.627 86.1628C104.642 86.2071 104.646 86.2539 104.64 86.3H104.62ZM106.09 85.04C105.839 84.7889 105.542 84.5898 105.214 84.4542C104.886 84.3186 104.535 84.2492 104.18 84.25C103.458 84.2519 102.766 84.5353 102.25 85.04C101.744 85.551 101.46 86.2409 101.46 86.96C101.437 87.3304 101.491 87.7015 101.617 88.0504C101.744 88.3994 101.94 88.7188 102.194 88.989C102.449 89.2592 102.755 89.4746 103.096 89.6217C103.437 89.7689 103.804 89.8449 104.175 89.8449C104.546 89.8449 104.913 89.7689 105.254 89.6217C105.594 89.4746 105.901 89.2592 106.156 88.989C106.41 88.7188 106.606 88.3994 106.733 88.0504C106.859 87.7015 106.912 87.3304 106.89 86.96C106.891 86.6029 106.82 86.2492 106.683 85.9196C106.546 85.5899 106.344 85.2909 106.09 85.04ZM104.18 89.15C103.6 89.1474 103.044 88.9158 102.634 88.5057C102.224 88.0955 101.993 87.54 101.99 86.96C101.992 86.3823 102.222 85.8289 102.63 85.42C103.045 85.0168 103.601 84.7909 104.18 84.79C104.758 84.79 105.313 85.0197 105.721 85.4285C106.13 85.8373 106.36 86.3918 106.36 86.97C106.36 87.5482 106.13 88.1027 105.721 88.5115C105.313 88.9203 104.758 89.15 104.18 89.15Z" fill="#00269A"/>
<path d="M86.42 33.23C83.3 33.73 80.57 34.79 78.71 40.54L75.12 52.15L66.05 53.65C63.58 53.99 59.24 55.72 57.64 59.3C55.23 63.62 50.77 77.43 50.36 82.64C50.28 88.24 54.91 88.95 59.03 88.24L75.4 85.61L92.15 32.29L86.42 33.23ZM66.73 78.86C65.4757 79.3084 64.152 79.5318 62.82 79.52C62.32 79.15 61.97 79.16 62.08 78L66.78 63.48C66.9535 62.9035 67.3076 62.398 67.7901 62.038C68.2726 61.6779 68.858 61.4823 69.46 61.48L72.33 61.07L66.73 78.86ZM103.78 47.42C96.72 48.32 92.13 49.59 89 54.94C86 60.13 84.8 64.99 82.2 74.07C79.6 83.15 84.88 84.59 93.84 83.46C104.43 82.1 107.05 78.39 109.33 71.03L109.61 70.17L98.88 71.94V72.05C98.23 74.11 97.18 74.73 95.15 74.99C92.46 75.33 92.74 73.94 93.31 72.09L94.31 68.88L111.05 66.22L114.51 55.22C115.91 50.71 115.24 45.95 103.79 47.41L103.78 47.42ZM103.31 58.09L102.45 60.87L96.52 61.76L97.45 58.83C97.89 57.38 98.68 56.4 101.08 56.1C103.48 55.8 103.76 56.64 103.31 58.1V58.09ZM44.07 45.7L28.52 96.7C27.9326 98.2967 26.9537 99.7204 25.6729 100.84C24.3922 101.96 22.8508 102.741 21.19 103.11L14.84 104.06L32.07 47.58L12.52 50.82L15.31 41.94C15.4429 41.2368 15.8135 40.6006 16.3597 40.1382C16.9059 39.6757 17.5945 39.4151 18.31 39.4L66.55 31.54L64.86 36.85C64.1796 38.5833 63.0704 40.1155 61.6362 41.3031C60.202 42.4907 58.4898 43.2948 56.66 43.64L44.07 45.7ZM51.07 57.6C47.92 58.1 45.07 56.24 44.58 53.45C44.09 50.66 46.36 48.01 49.52 47.52C52.68 47.03 55.58 48.88 56.01 51.67C56.44 54.46 54.23 57.11 51.07 57.6ZM53.94 59L43.94 90.66L32.6 92.66L42.6 61.05L53.94 59Z" fill="#00269A"/>
<path d="M169.8 75.82C168.29 80.41 162.48 84.71 155.92 84.71C152.986 84.8071 150.1 83.9489 147.696 82.2645C145.292 80.5801 143.5 78.1606 142.59 75.37C141.72 72.4541 141.468 69.3888 141.85 66.37C142.29 61.26 146.48 46.29 159.29 39.37C161.12 38.4086 163.176 37.9627 165.24 38.08C171.4 38.52 172.61 44.01 172.36 46.85C172.16 49.19 169.82 54.13 166.27 54.13C165.946 54.1542 165.62 54.1096 165.314 53.9993C165.009 53.8889 164.73 53.7153 164.495 53.4897C164.261 53.2641 164.078 52.9917 163.956 52.6902C163.834 52.3886 163.778 52.0649 163.79 51.74C163.95 49.91 165.71 49.14 166.39 48.57C167.31 47.8 168.25 44.01 164.96 43.3C161.03 43.17 156.82 46.23 151.96 53.99C149.793 57.5701 148.317 61.5253 147.61 65.65C146.61 74.88 151.68 79.52 155.46 79.52C164.46 79.52 164.93 71.34 168.64 71.34C170.27 71.34 170.64 73.34 169.81 75.84L169.8 75.82ZM292 58.84C289.1 60.4 286.26 62.53 283.69 69.01C281.12 75.49 280.89 78.78 280.13 80.96C279.37 83.14 277.96 83.37 276.74 82.96C276.448 82.9059 276.171 82.7915 275.926 82.624C275.681 82.4564 275.473 82.2396 275.317 81.9872C275.161 81.7349 275.059 81.4527 275.018 81.1587C274.977 80.8647 274.998 80.5654 275.08 80.28C275.08 80.28 268.49 85.28 261.45 83.28C257.57 82.28 256.92 79.66 256.92 79.66C256.92 79.66 251.63 85.46 246.76 82.18C242.54 79.42 244.49 73.72 244.99 71.91C245.49 70.1 247.99 62.72 248.39 61.12C248.79 59.52 249.55 57.43 245.45 60.49C241.35 63.55 238.61 66.39 236.64 71.38C236.64 71.38 234.16 79.69 233.99 80.17C233.781 80.7992 233.378 81.3461 232.839 81.7323C232.3 82.1185 231.653 82.3243 230.99 82.32C230.518 82.3089 230.067 82.1224 229.725 81.7971C229.383 81.4717 229.175 81.0308 229.14 80.56C229.14 80.56 225.6 84.33 221.63 82.45C219.22 81.29 219.27 79.81 219.27 79.81C219.27 79.81 215.95 85.55 209.96 82.68C209.147 82.3098 208.437 81.7447 207.895 81.0348C207.352 80.3248 206.994 79.4919 206.85 78.61C206.85 78.61 199.25 86.16 190.85 83.09C187.04 81.78 186.69 79.09 186.69 79.09C186.69 79.09 180.98 86.7 174.58 82.71C172.01 81.27 171.15 77.1 173.63 67.97C176.11 58.84 178.98 48.97 180.2 44.86C181.42 40.75 183.1 40.31 183.94 40.57C183.94 40.57 187.02 41.14 185.94 44.98C184.86 48.82 180.71 62.21 179.72 65.58C178.6 69.43 176.45 77.77 178.13 78.58C179.81 79.39 181.54 78.14 183.63 75.9C185.72 73.66 185.91 72.78 186.12 71.98C186.33 71.18 186.78 66.22 191.45 59.31C196.12 52.4 201 51.78 203.34 54.08C205.68 56.38 206.26 61.08 202.39 65.84C197.94 71.23 194.06 70.32 193.11 70.27C192.16 70.22 191.88 70.89 191.65 71.97C191.42 73.05 190.65 77.1 193.25 78.7C195.85 80.3 202.86 77.7 206.47 71.78C207.575 67.6524 209.316 63.722 211.63 60.13C216.49 52.97 221.49 52.55 224.48 54.81C224.66 54.95 224.83 55.08 224.99 55.22C225.298 54.9572 225.66 54.7654 226.051 54.6582C226.442 54.5511 226.851 54.5312 227.25 54.6C227.588 54.64 227.912 54.7549 228.199 54.9364C228.487 55.1179 228.73 55.3613 228.911 55.6489C229.092 55.9365 229.207 56.2609 229.246 56.5985C229.286 56.9361 229.25 57.2783 229.14 57.6C228.84 58.67 228.41 60.11 228.41 60.11L223.55 74.38C223.08 76.3 223.23 77.38 223.86 77.85C224.49 78.32 227.72 77.23 230.59 71.94C230.59 71.94 232.14 67.11 233.7 60.94C234.59 57.52 234.99 54.74 237.97 54.89C239.84 55.09 239.86 56.56 239.62 57.64C239.38 58.72 239.05 60.17 239.05 60.17C239.05 60.17 246.89 50.79 252.26 55.01C255.1 57.94 253.56 61.57 252.73 64.07C251.9 66.57 250.73 70.74 249.57 74.48C248.94 76.81 248.96 78.03 249.87 78.34C250.78 78.65 253.55 77.21 255.68 73.83C256.14 73.24 255.97 72.46 256.22 71.27C256.47 70.08 257.27 65.04 262.06 58.34C266.85 51.64 271.92 52.4 273.94 54.68C275.96 56.96 276.1 61.04 272.13 66.05C268.16 71.06 263.81 70.39 263.04 70.28C262.27 70.17 262.04 70.46 261.61 71.87C261.18 73.28 260.7 77.98 263.1 78.87C265.5 79.76 271.52 78.57 276.37 72.35C277.44 71.07 279.31 64.49 280.16 60.97C281.01 57.45 281.37 54.69 283.62 54.84C283.963 54.8153 284.307 54.8699 284.625 54.9995C284.944 55.1292 285.228 55.3304 285.456 55.5876C285.685 55.8448 285.851 56.1511 285.941 56.4827C286.032 56.8144 286.045 57.1624 285.98 57.5C285.98 57.5 287.98 54.07 293.47 53.08C295.63 52.75 297.23 54.03 296.85 55.65C296.47 57.27 294.9 57.19 292 58.75V58.84ZM263.78 65.75C265.447 65.1494 266.95 64.1647 268.166 62.8756C269.382 61.5866 270.277 60.0294 270.78 58.33C271.15 57.28 269.91 57.16 267.42 59.52C265.783 61.2637 264.487 63.2989 263.6 65.52C263.585 65.5512 263.58 65.5862 263.585 65.6203C263.591 65.6545 263.606 65.6862 263.63 65.7112C263.654 65.7362 263.685 65.7533 263.719 65.7602C263.753 65.7672 263.788 65.7636 263.82 65.75H263.78ZM193.9 65.75C195.567 65.1494 197.07 64.1647 198.286 62.8756C199.502 61.5866 200.397 60.0294 200.9 58.33C201.26 57.28 200.03 57.16 197.54 59.52C195.902 61.2651 194.603 63.2997 193.71 65.52C193.699 65.5521 193.696 65.5868 193.704 65.62C193.711 65.6532 193.728 65.6837 193.752 65.7077C193.776 65.7318 193.807 65.7486 193.84 65.7561C193.873 65.7636 193.908 65.7614 193.94 65.75H193.9ZM219.47 69.85C219.78 69.01 220.21 67.85 220.71 66.4C221.2 64.98 221.77 63.34 222.35 61.55C222.49 60.92 222.62 60.26 222.71 59.55C222.57 58.83 222.13 58.07 220.66 57.98C218.32 57.84 214.85 63.98 213.66 66.81C212.47 69.64 210.9 76.97 212.34 78.06C213.78 79.15 216.97 76.49 219.43 69.82L219.47 69.85ZM301.78 62.92C300.78 62.28 300.64 61.73 301.94 61.05C303.737 60.0629 305.712 59.441 307.75 59.22C310.38 58.96 311.21 57.22 311.06 55.99C310.87 54.44 309.37 53.53 305.37 54.52C301.37 55.51 295.2 57.66 294.98 62.59C294.98 69.72 307.51 67.02 304.98 73.85C303.76 77.18 300.63 77.78 298.65 77.75C295.8 77.69 295.33 75.19 295.42 73.34C295.49 71.81 292.91 70.95 291.87 73.34C290.83 75.73 289.87 80.44 294.26 82.47C298.65 84.5 308.17 83.02 310.16 74.31C312.26 65.13 303.41 63.95 301.74 62.89" fill="white"/>
</g>
<defs>
<clipPath id="clip0_3_47">
<rect width="311.02" height="126.84" fill="white"/>
</clipPath>
</defs>
</svg>
